<svg xmlns="http://www.w3.org/2000/svg" width="87.153" height="79" viewBox="0 0 87.153 79">
  <g id="Group_245" data-name="Group 245" transform="translate(1.013 1)">
    <path id="Path_429" data-name="Path 429" d="M89.32,31.958c-1.984-5.9-7.545-10.32-16.519-13.139A37.635,37.635,0,0,0,23,18.608l-.3.092C13.5,21.513,7.821,25.974,5.809,31.958,2.8,40.9,9.121,49.8,9.392,50.17l.444.615A38.289,38.289,0,0,0,47.779,86.3,38.3,38.3,0,0,0,85.771,50.124C86.314,49.356,92.251,40.677,89.32,31.958ZM47.779,11.2A35.66,35.66,0,0,1,68.4,17.756l3.155,2.591c.111.09,10.185,8.558,12.142,24.894H75.922c-.411-5.352-4.238-9.561-8.891-9.561H60.049c-4.652,0-8.48,4.209-8.891,9.561h-7.12c-.411-5.352-4.238-9.561-8.89-9.561H28.165c-4.652,0-8.48,4.209-8.891,9.561H11.712a36.735,36.735,0,0,1,1.438-7.981,41.935,41.935,0,0,1,3.836-8.625A36.082,36.082,0,0,1,47.779,11.2ZM74.059,46.193c0,4.746-3.153,8.608-7.028,8.608H60.049c-3.875,0-7.028-3.862-7.028-8.608s3.153-8.608,7.028-8.608h6.982C70.907,37.584,74.059,41.445,74.059,46.193Zm-31.889.126c-.056,4.689-3.182,8.483-7.021,8.483H28.165c-3.827,0-6.943-3.767-7.02-8.433a1.822,1.822,0,0,0,0-.352c.078-4.665,3.193-8.432,7.02-8.432h6.982c3.84,0,6.965,3.794,7.021,8.482A1.889,1.889,0,0,0,42.169,46.319Zm-32.781.088c-1.574-3.123-3.549-8.562-1.774-13.841,1.515-4.509,5.47-8.09,11.778-10.676A43.245,43.245,0,0,0,9.388,46.407ZM47.779,84.393A36.423,36.423,0,0,1,11.615,47.8c0-.218.012-.434.016-.652h7.645c.411,5.352,4.238,9.56,8.891,9.56h6.982c4.651,0,8.48-4.209,8.89-9.56h7.12c.411,5.352,4.239,9.56,8.891,9.56h6.982c4.652,0,8.481-4.209,8.891-9.56H83.88c.02.251.043.5.06.752C83.885,68.03,67.685,84.393,47.779,84.393ZM85.808,46.26a38.578,38.578,0,0,0-9.787-24.248c6.135,2.574,10,6.108,11.491,10.544C89.262,37.747,87.37,43.108,85.808,46.26ZM68.893,69.119a5.93,5.93,0,0,1-.661-.078,6.2,6.2,0,0,1-1.825-.7A24.059,24.059,0,0,1,62.2,65.362c-.787-.666-1.551-1.362-2.276-2.095a11.665,11.665,0,0,0-8.415-3.761,10.868,10.868,0,0,0-3.882.708,10.869,10.869,0,0,0-3.882-.708,11.668,11.668,0,0,0-8.415,3.761c-.164.166-.312.307-.471.465A31.67,31.67,0,0,1,30.689,67.2c-1.333.931-2.9,1.957-4.592,1.933a1.643,1.643,0,0,1-1.085-.378c-.051-.046-.138-.094-.175-.036a.111.111,0,0,0-.012.062,2.815,2.815,0,0,0,.765,1.832,8.408,8.408,0,0,0,3.915,2,16.94,16.94,0,0,0,4.651.711c4.183,0,9.748-1.734,13.466-9.523,3.718,7.79,9.285,9.523,13.467,9.523A16.987,16.987,0,0,0,66,72.532,7.939,7.939,0,0,0,70,70.162a4.158,4.158,0,0,0,.533-.793,1.645,1.645,0,0,0,.192-.745,2.59,2.59,0,0,1-1.486.5A3.236,3.236,0,0,1,68.893,69.119ZM45.829,63.157c-.035.072-.072.14-.107.211-.184.368-.374.724-.567,1.06-.026.045-.052.092-.079.136a15.216,15.216,0,0,1-3.691,4.37,11.227,11.227,0,0,1-7.061,2.341,15.465,15.465,0,0,1-4.8-.813c1.765-.858,3.971-2.663,6.886-5.586.118-.117.215-.213.268-.267a9.764,9.764,0,0,1,7.061-3.2,9.23,9.23,0,0,1,2.693.406C46.24,62.286,46.037,62.731,45.829,63.157Zm15.265,8.258c-3.814,0-8.975-1.694-12.277-9.6a9.235,9.235,0,0,1,2.693-.406,9.763,9.763,0,0,1,7.06,3.2c.519.525,4.359,4.34,7.756,5.806A14.6,14.6,0,0,1,61.093,71.415ZM31.657,44.306c-1.506,0-2.726.808-2.726,1.8s1.22,1.8,2.726,1.8,2.727-.808,2.727-1.8S33.162,44.306,31.657,44.306Zm31.885.307c-1.506,0-2.727.808-2.727,1.8s1.221,1.8,2.727,1.8,2.726-.808,2.726-1.8S65.045,44.613,63.541,44.613Z" transform="translate(-5 -9.297)" fill="none" stroke="#1ec1e9" stroke-width="2"/>
  </g>
</svg>
