<svg xmlns="http://www.w3.org/2000/svg" width="72" height="96" viewBox="0 0 72 96">
  <g id="Icon_awesome-child" data-name="Icon awesome-child" fill="none" stroke-linejoin="bevel">
    <path d="M22.5,13.5A13.5,13.5,0,1,1,36,27,13.5,13.5,0,0,1,22.5,13.5Zm47.743.257a6,6,0,0,0-8.485,0L45.515,30H26.485L10.243,13.757a6,6,0,0,0-8.485,8.485L19.5,39.985V90a6,6,0,0,0,6,6h3a6,6,0,0,0,6-6V69h3V90a6,6,0,0,0,6,6h3a6,6,0,0,0,6-6V39.985L70.243,22.243a6,6,0,0,0,0-8.485Z" stroke="none"/>
    <path d="M 35.99997329711914 4 C 30.76165771484375 4 26.49997329711914 8.261680603027344 26.49997329711914 13.5 C 26.49997329711914 18.73831939697266 30.76165771484375 23 35.99997329711914 23 C 41.23828887939453 23 45.49997329711914 18.73831939697266 45.49997329711914 13.5 C 45.49997329711914 8.261680603027344 41.23828887939453 4 35.99997329711914 4 M 5.999977111816406 16.00005340576172 C 5.690605163574219 16.00005340576172 5.095504760742188 16.07613372802734 4.585838317871094 16.58586883544922 C 3.806022644042969 17.36566925048828 3.806022644042969 18.63451385498047 4.585823059082031 19.41429901123047 L 22.32838821411133 37.15668487548828 L 23.49997329711914 39.98513412475586 L 23.49997329711914 90 C 23.49997329711914 91.10279846191406 24.39717483520508 92 25.49997329711914 92 L 28.49997329711914 92 C 29.6027717590332 92 30.49997329711914 91.10279846191406 30.49997329711914 90 L 30.49997329711914 69 L 34.49997329711914 65 L 37.49997329711914 65 L 41.49997329711914 69 L 41.49997329711914 90 C 41.49997329711914 91.10279846191406 42.39717102050781 92 43.49997329711914 92 L 46.49997329711914 92 C 47.60277557373047 92 48.49997329711914 91.10279846191406 48.49997329711914 90 L 48.49997329711914 39.98513412475586 L 49.67153930664063 37.15670013427734 L 67.41410827636719 19.41414642333984 C 68.19385528564453 18.63438415527344 68.19387054443359 17.36561584472656 67.41398620605469 16.58573150634766 C 66.90444183349609 16.07613372802734 66.30934143066406 16.00005340576172 65.99996948242188 16.00005340576172 C 65.69060516357422 16.00005340576172 65.09550476074219 16.07613372802734 64.58582305908203 16.58588409423828 L 48.34307098388672 32.82844924926758 L 45.51465606689453 34 L 26.485107421875 34 L 23.65667343139648 32.82843399047852 L 7.413970947265625 16.58573150634766 C 6.904426574707031 16.07613372802734 6.309341430664063 16.00005340576172 5.999977111816406 16.00005340576172 M 35.99997329711914 0 C 43.45592498779297 0 49.49997329711914 6.044052124023438 49.49997329711914 13.5 C 49.49997329711914 20.95574951171875 43.45592498779297 27 35.99997329711914 27 C 28.54402160644531 27 22.49997329711914 20.95574951171875 22.49997329711914 13.5 C 22.49997329711914 6.044052124023438 28.54402160644531 0 35.99997329711914 0 Z M 5.999969482421875 12.00004577636719 C 7.535499572753906 12.00004577636719 9.071033477783203 12.58583831787109 10.24252319335938 13.75743103027344 L 26.485107421875 30 L 45.51465606689453 30 L 61.75740814208984 13.75743103027344 C 62.92890548706055 12.58583831787109 64.46443939208984 12.00004577636719 65.99996948242188 12.00004577636719 C 67.53550720214844 12.00004577636719 69.07103729248047 12.58583831787109 70.24253845214844 13.75743103027344 C 72.58572387695313 16.10061645507813 72.58572387695313 19.89936828613281 70.24253845214844 22.24256896972656 L 52.49997329711914 39.98513412475586 L 52.49997329711914 90 C 52.49997329711914 93.31368255615234 49.81367492675781 96 46.49997329711914 96 L 43.49997329711914 96 C 40.1862907409668 96 37.49997329711914 93.31368255615234 37.49997329711914 90 L 37.49997329711914 69 L 34.49997329711914 69 L 34.49997329711914 90 C 34.49997329711914 93.31368255615234 31.81365585327148 96 28.49997329711914 96 L 25.49997329711914 96 C 22.1862907409668 96 19.49997329711914 93.31368255615234 19.49997329711914 90 L 19.49997329711914 39.98513412475586 L 1.757408142089844 22.24275207519531 C -0.5857772827148438 19.89955139160156 -0.5857772827148438 16.10061645507813 1.757408142089844 13.75743103027344 C 2.928909301757813 12.58583831787109 4.464439392089844 12.00004577636719 5.999969482421875 12.00004577636719 Z" stroke="none" fill="#1ec1e9"/>
  </g>
</svg>
