<svg xmlns="http://www.w3.org/2000/svg" width="82.501" height="65.042" viewBox="0 0 82.501 65.042">
  <path id="Icon_awesome-home" data-name="Icon awesome-home" d="M38.207,18.089,13.083,38.782V61.115a2.18,2.18,0,0,0,2.18,2.18l15.27-.04a2.18,2.18,0,0,0,2.169-2.18V48.033a2.18,2.18,0,0,1,2.18-2.18H43.6a2.18,2.18,0,0,1,2.18,2.18V61.066a2.18,2.18,0,0,0,2.18,2.187L63.23,63.3a2.18,2.18,0,0,0,2.18-2.18V38.767L40.292,18.089A1.661,1.661,0,0,0,38.207,18.089ZM77.892,32.154,66.5,22.763V3.889a1.635,1.635,0,0,0-1.635-1.635H57.234A1.635,1.635,0,0,0,55.6,3.889v9.894L43.4,3.746a6.541,6.541,0,0,0-8.312,0L.592,32.154a1.635,1.635,0,0,0-.218,2.3l3.475,4.224a1.635,1.635,0,0,0,2.3.222L38.207,12.5a1.661,1.661,0,0,1,2.085,0L72.346,38.9a1.635,1.635,0,0,0,2.3-.218l3.475-4.224a1.635,1.635,0,0,0-.232-2.307Z" transform="translate(2.003 -0.254)" fill="none" stroke="#1ec1e9" stroke-width="4"/>
</svg>
