<svg xmlns="http://www.w3.org/2000/svg" width="64.314" height="61.275" viewBox="0 0 64.314 61.275">
  <g id="Icon_material-pets" data-name="Icon material-pets" transform="translate(-1 -2.5)">
    <path id="Path_455" data-name="Path 455" d="M18.078,18.039A7.539,7.539,0,1,1,10.539,10.5a7.539,7.539,0,0,1,7.539,7.539Z" transform="translate(0 6.063)" fill="none" stroke="#1ec1e9" stroke-width="4"/>
    <path id="Path_456" data-name="Path 456" d="M24.828,12.039A7.539,7.539,0,1,1,17.289,4.5a7.539,7.539,0,0,1,7.539,7.539Z" transform="translate(6.821)" fill="none" stroke="#1ec1e9" stroke-width="4"/>
    <path id="Path_457" data-name="Path 457" d="M33.828,12.039A7.539,7.539,0,1,1,26.289,4.5a7.539,7.539,0,0,1,7.539,7.539Z" transform="translate(15.915)" fill="none" stroke="#1ec1e9" stroke-width="4"/>
    <path id="Path_458" data-name="Path 458" d="M40.578,18.039A7.539,7.539,0,1,1,33.039,10.5a7.539,7.539,0,0,1,7.539,7.539Z" transform="translate(22.735 6.063)" fill="none" stroke="#1ec1e9" stroke-width="4"/>
    <path id="Path_459" data-name="Path 459" d="M46.239,28.9c-2.624-3.076-4.825-5.7-7.479-8.776a12.794,12.794,0,0,0-5.277-3.981,6.106,6.106,0,0,0-1-.271,15.178,15.178,0,0,0-2.352-.121,12.651,12.651,0,0,0-2.382.151,6.1,6.1,0,0,0-1,.271,12.991,12.991,0,0,0-5.277,3.981c-2.624,3.076-4.825,5.7-7.479,8.776C10.051,32.879,5.2,37.252,6.1,43.374a9.468,9.468,0,0,0,7.027,7c2.2.452,9.228-1.327,16.707-1.327h.543c7.479,0,14.505,1.749,16.707,1.327a9.514,9.514,0,0,0,7.027-7c.935-6.152-3.92-10.525-7.871-14.475Z" transform="translate(3.022 11.368)" fill="none" stroke="#1ec1e9" stroke-width="4"/>
  </g>
</svg>
